#!OML:ASF F:\VICON\USERDATA\INSTALL\rory3\rory3.ASF
:FULLY-SPECIFIED
:DEGREES
78
root 0.365027 18.0221 -15.0172 -0.966096 -3.00559 -6.65037
lowerback 10.9106 1.25703 6.6756
upperback -0.231603 2.68352 2.44184
thorax -6.19463 1.14358 -1.6089
lowerneck -15.5067 -3.24822 -1.54522
upperneck 22.9881 -3.99825 -0.607054
head 9.87847 -2.0552 -0.471977
rclavicle -7.24322e-015 8.94531e-015
rhumerus -22.4792 -10.045 -81.125
rradius 29.8288
rwrist -0.692391
rhand -19.8873 22.2488
rfingers 7.12502
rthumb 6.4486 -7.63307
lclavicle -7.24322e-015 8.94531e-015
lhumerus -36.471 8.2982 81.1565
lradius 22.9613
lwrist 2.7927
lhand -25.972 19.8492
lfingers 7.12502
lthumb 0.572764 49.8282
rfemur 2.22367 6.13551 33.6366
rtibia 24.5398
rfoot -18.816 -7.16921
rtoes 3.3552
lfemur -28.6558 -1.30425 -12.2545
ltibia 38.2873
lfoot -5.63871 2.78403
ltoes -9.33453
79
root 0.367826 18.0431 -14.8547 -0.815546 -3.19126 -6.83764
lowerback 11.0705 1.34648 6.80526
upperback -0.431223 2.84936 2.4794
thorax -6.48237 1.20781 -1.67513
lowerneck -15.1296 -3.28763 -1.41095
upperneck 22.8936 -4.05997 -0.746685
head 9.76715 -2.08984 -0.541979
rclavicle -7.04443e-015 -1.35174e-014
rhumerus -22.4649 -9.94008 -81.0679
rradius 30.1482
rwrist -0.711244
rhand -20.1498 22.0782
rfingers 7.12502
rthumb 6.19515 -7.81125
lclavicle -7.04443e-015 -1.35174e-014
lhumerus -36.8505 8.577 80.963
lradius 22.8842
lwrist 2.17938
lhand -25.7445 22.1833
lfingers 7.12502
lthumb 0.792487 52.1616
rfemur 3.12084 6.11203 33.8121
rtibia 23.5736
rfoot -18.5298 -7.09305
rtoes 3.66306
lfemur -28.3296 -1.59995 -11.7674
ltibia 36.3388
lfoot -5.32636 2.75354
ltoes -2.74604
80
root 0.368745 18.0117 -14.6863 -0.711965 -3.55115 -6.97688
lowerback 11.1823 1.50955 6.92622
upperback -0.527414 3.0965 2.44724
thorax -6.62222 1.31707 -1.82056
lowerneck -15.0027 -3.27809 -1.24883
upperneck 22.8272 -4.08462 -0.768163
head 9.71503 -2.09024 -0.575914
rclavicle 2.04748e-014 -6.75868e-015
rhumerus -22.0867 -9.96978 -81.1063
rradius 30.178
rwrist -0.651035
rhand -20.0679 21.9396
rfingers 7.12502
rthumb 6.27427 -7.94746
lclavicle 2.04748e-014 -6.75868e-015
lhumerus -37.1919 8.42884 80.8926
lradius 22.6643
lwrist 2.73375
lhand -26.0826 20.968
lfingers 7.12502
lthumb 0.465942 50.9472
rfemur 3.97361 6.28141 33.9807
rtibia 22.8989
rfoot -18.435 -6.99828
rtoes 2.9908
lfemur -29.0638 -1.29538 -11.6971
ltibia 34.0841
lfoot -2.72953 2.49007
ltoes -11.3943
81
root 0.373155 18.0146 -14.5141 -0.645348 -3.67758 -7.15598
lowerback 11.0616 1.53561 7.11336
upperback -0.438996 3.14023 2.48107
thorax -6.44847 1.34041 -1.88954
lowerneck -15.0769 -3.22991 -1.30339
upperneck 22.752 -4.01613 -0.707046
head 9.70509 -2.05603 -0.537396
rclavicle -4.63665e-014 -1.35174e-014
rhumerus -21.4818 -9.68054 -81.17
rradius 30.1449
rwrist -0.555668
rhand -19.9317 22.4486
rfingers 7.12502
rthumb 6.40576 -7.43453
lclavicle -4.63665e-014 -1.35174e-014
lhumerus -37.1948 8.69301 80.8063
lradius 22.4347
lwrist 2.82564
lhand -26.0907 21.4824
lfingers 7.12502
lthumb 0.458132 51.4616
rfemur 4.80964 6.15502 34.1299
rtibia 22.3154
rfoot -18.3381 -6.82815
rtoes 2.16026
lfemur -28.8832 -1.51071 -11.3795
ltibia 31.9163
lfoot -1.42853 1.98546
ltoes -11.0356
82
root 0.383945 17.9997 -14.3409 -0.479968 -3.69215 -6.97307
lowerback 10.7618 1.53273 6.87042
upperback -0.339332 3.07032 2.48735
thorax -6.18979 1.3256 -1.72428
lowerneck -15.3268 -3.17453 -1.39396
upperneck 22.755 -3.91382 -0.693647
head 9.7556 -2.014 -0.509547
rclavicle -2.1829e-014 1.78906e-015
rhumerus -20.8806 -9.47855 -81.1686
rradius 30.0886
rwrist -0.491382
rhand -19.967 23.3668
rfingers 7.12502
rthumb 6.37171 -6.51741
lclavicle -2.1829e-014 1.78906e-015
lhumerus -36.9775 9.55646 80.5788
lradius 21.8785
lwrist 2.0902
lhand -25.9565 21.0393
lfingers 7.12502
lthumb 0.58779 51.0183
rfemur 5.31047 5.88842 33.8169
rtibia 22.0877
rfoot -18.3011 -6.513
rtoes 1.01048
lfemur -28.6055 -1.88272 -11.4421
ltibia 29.2408
lfoot -0.0447933 1.43928
ltoes -14.0377
83
root 0.391535 18.0132 -14.1633 -0.305895 -3.68955 -6.93209
lowerback 10.3565 1.54545 6.80797
upperback -0.185999 3.03241 2.50453
thorax -5.80412 1.32543 -1.64818
lowerneck -15.6414 -3.15213 -1.42705
upperneck 22.7188 -3.86187 -0.715505
head 9.80225 -1.99428 -0.510443
rclavicle -1.55052e-014 -3.97569e-016
rhumerus -20.2377 -9.20576 -81.2567
rradius 30.6325
rwrist -1.32833
rhand -19.9196 22.1113
rfingers 7.12502
rthumb 6.4174 -7.7715
lclavicle -1.55052e-014 -3.97569e-016
lhumerus -36.7636 9.90897 80.5868
lradius 21.5382
lwrist 1.84775
lhand -26.1363 20.4839
lfingers 7.12502
lthumb 0.414135 50.4633
rfemur 5.80511 5.87875 33.7283
rtibia 21.8709
rfoot -18.0625 -6.51644
rtoes 0.15225
lfemur -28.378 -2.22055 -11.3616
ltibia 26.9161
lfoot 1.16776 0.848714
ltoes -17.1065
84
root 0.395481 18.0166 -13.9898 -0.243778 -3.71424 -6.98686
lowerback 10.3257 1.59096 6.89159
upperback -0.156645 3.09533 2.46007
thorax -5.74399 1.35575 -1.74847
lowerneck -15.773 -3.21045 -1.44467
upperneck 22.772 -3.94985 -0.662927
head 9.84788 -2.02974 -0.503929
rclavicle 2.45251e-014 -6.95746e-015
rhumerus -19.9614 -9.13056 -81.2773
rradius 30.8184
rwrist -1.35315
rhand -19.8953 21.9856
rfingers 7.12502
rthumb 6.44093 -7.89648
lclavicle 2.45251e-014 -6.95746e-015
lhumerus -36.7375 9.92542 80.5313
lradius 21.3022
lwrist 1.65574
lhand -26.3355 20.7701
lfingers 7.12502
lthumb 0.221733 50.7498
rfemur 6.43499 5.83556 33.7591
rtibia 21.6923
rfoot -17.9203 -6.37519
rtoes 0.0612871
lfemur -28.1973 -2.55054 -11.1932
ltibia 24.8934
lfoot 2.26043 0.371241
ltoes -15.9116
85
root 0.403686 17.9822 -13.8186 -0.247065 -3.80845 -7.17811
lowerback 10.5302 1.63769 7.04295
upperback -0.229658 3.20094 2.47539
thorax -5.92227 1.39545 -1.84087
lowerneck -15.7204 -3.26358 -1.37701
upperneck 22.847 -4.04468 -0.660501
head 9.86327 -2.06746 -0.526681
rclavicle -2.84635e-014 -1.59028e-015
rhumerus -19.7674 -9.33072 -81.2623
rradius 30.8336
rwrist -1.08572
rhand -19.6736 22.1024
rfingers 7.12502
rthumb 6.65488 -7.77299
lclavicle -2.84635e-014 -1.59028e-015
lhumerus -36.7707 10.2828 80.2425
lradius 20.6764
lwrist 0.990293
lhand -26.3277 20.0911
lfingers 7.12502
lthumb 0.229217 50.0708
rfemur 7.20117 5.85945 33.9238
rtibia 21.3504
rfoot -17.6847 -6.12
rtoes 0.347717
lfemur -28.2308 -3.0158 -10.8001
ltibia 23.1594
lfoot 3.46808 0.147822
ltoes -14.3481
